Coordinates
version=1
nRows=8
nColumns=34
inDegrees=yes

Units are S.I. units (second, meters, Newtons, ...)
If the header above contains a line with 'inDegrees', this indicates whether rotational values are in degrees (yes) or radians (no).

endheader
time	pelvis_tilt	pelvis_list	pelvis_rotation	pelvis_tx	pelvis_ty	pelvis_tz	hip_flexion_r	hip_adduction_r	hip_rotation_r	knee_angle_r	ankle_angle_r	subtalar_angle_r	mtp_angle_r	hip_flexion_l	hip_adduction_l	hip_rotation_l	knee_angle_l	ankle_angle_l	subtalar_angle_l	mtp_angle_l	lumbar_extension	lumbar_bending	lumbar_rotation	arm_flex_r	arm_add_r	arm_rot_r	elbow_flex_r	pro_sup_r	arm_flex_l	arm_add_l	arm_rot_l	elbow_flex_l	pro_sup_l
      8.28333330	     -8.00864207	     15.46258773	    -69.60568392	      0.02508225	      0.56077130	     -0.33732669	    100.84430093	     -8.89977031	      9.50577953	    121.71685415	     37.70328748	      3.91900535	      0.00000000	    100.77612716	     -8.78302295	      6.74887812	    123.66018813	     34.70646826	      1.53445206	      0.00000000	    -31.91070811	      5.10037741	     -1.48122360	     95.69745069	    -12.58721943	     19.86962441	     99.68468728	    119.74817918	     94.27985505	    -11.38136848	     17.11066531	     98.85062572	    119.74817918
      8.30000000	     -8.00861030	     15.47678112	    -69.60158591	      0.02483708	      0.55842149	     -0.33768611	    101.21588817	     -8.82169921	      9.64891504	    122.08621471	     37.68695430	      3.95456720	      0.00000000	    101.16884409	     -8.72967549	      6.93197398	    124.06043015	     34.67217357	      1.57954717	      0.00000000	    -31.96193515	      5.17420711	     -1.48121890	     96.09025278	    -12.30262338	     19.49889459	     99.19832220	    119.74817918	     94.66666478	    -11.08786697	     16.69156048	     98.24858593	    119.74817918
      8.31666670	     -7.98595264	     15.46635436	    -69.60372489	      0.02455336	      0.55662993	     -0.33823979	    101.48961113	     -8.73480832	      9.78436289	    122.32333263	     37.68271212	      3.96110342	      0.00000000	    101.46933891	     -8.66505090	      7.09682409	    124.33638414	     34.65872840	      1.59440615	      0.00000000	    -32.00907812	      5.26346375	     -1.47714348	     96.40020240	    -12.02884331	     19.15143792	     98.76738675	    119.74817918	     95.04169589	    -10.84587402	     16.30204354	     97.69159278	    119.74817918
      8.33333330	     -7.97693486	     15.44131498	    -69.59690053	      0.02427859	      0.55542801	     -0.33866506	    101.66746897	     -8.63146316	      9.86900003	    122.49872459	     37.66197227	      3.95580896	      0.00000000	    101.66427888	     -8.58497189	      7.25257721	    124.51539111	     34.62469624	      1.58710242	      0.00000000	    -32.01508908	      5.31510212	     -1.49041774	     96.60248041	    -11.75391242	     18.79586715	     98.30911121	    119.74817918	     95.27481246	    -10.60862225	     15.93732744	     97.08739623	    119.74817918
      8.35000000	     -8.00401097	     15.43884506	    -69.58485867	      0.02424205	      0.55502052	     -0.33877914	    101.73558213	     -8.58445909	      9.89551035	    122.57685422	     37.61854840	      3.91726799	      0.00000000	    101.73590364	     -8.55790069	      7.34119797	    124.61724852	     34.57022124	      1.55445934	      0.00000000	    -31.95790084	      5.36761147	     -1.48053543	     96.68457153	    -11.45155720	     18.42758625	     97.82756269	    119.74817918	     95.38061094	    -10.33725873	     15.59478820	     96.46429593	    119.74817918
      8.36666670	     -8.01991772	     15.46732000	    -69.56674531	      0.02428364	      0.55551403	     -0.33871869	    101.73528284	     -8.57816208	      9.89717849	    122.57222211	     37.61726064	      3.91713530	      0.00000000	    101.70922244	     -8.56153338	      7.34446403	    124.62215015	     34.56678284	      1.55365155	      0.00000000	    -31.95248674	      5.36554884	     -1.47630560	     96.68630163	    -11.44408275	     18.42097098	     97.81880554	    119.74817918	     95.38171078	    -10.33325965	     15.58823110	     96.45257711	    119.74817918
      8.38333330	     -8.08917351	     15.50219715	    -69.52798468	      0.02420163	      0.55667986	     -0.33919829	    101.65344522	     -8.47552053	      9.83813696	    122.34806390	     37.50689878	      3.77818807	      0.00000000	    101.62006904	     -8.49336588	      7.35120404	    124.38792847	     34.49591074	      1.44238019	      0.00000000	    -31.83682701	      5.43053053	     -1.44282103	     96.60589040	    -10.98333005	     17.81239622	     97.21577663	    119.74817918	     95.35134890	     -9.94248532	     15.09064068	     95.64266758	    119.74817918
      8.40000000	     -8.12659422	     15.59008473	    -69.52260792	      0.02428516	      0.55845594	     -0.33944243	    101.52258903	     -8.41547191	      9.78041370	    122.03355136	     37.46446612	      3.77461712	      0.00000000	    101.45761236	     -8.45654470	      7.31158332	    124.08235254	     34.45970007	      1.44869669	      0.00000000	    -31.68544487	      5.45594377	     -1.44282124	     96.50210546	    -10.97676955	     17.74659329	     97.15468254	    119.74817918	     95.26267844	     -9.92644626	     15.06655272	     95.57499318	    119.74817918
